<?xml version="1.0" encoding="utf-8"?>
<!-- Generated by IcoMoon.io -->
<!DOCTYPE svg PUBLIC "-//W3C//DTD SVG 1.1//EN" "http://www.w3.org/Graphics/SVG/1.1/DTD/svg11.dtd">
<svg version="1.1" xmlns="http://www.w3.org/2000/svg" xmlns:xlink="http://www.w3.org/1999/xlink" width="64" height="64" viewBox="0 0 64 64">
  <path d="m 0,0 c 2.264,2.359 5.416,3.822 8.902,3.822 4.634,0 8.677,-2.584 10.83,-6.42 1.871,0.836 3.942,1.301 6.121,1.301 8.358,0 15.134,-6.835 15.134,-15.266 0,-8.432 -6.776,-15.267 -15.134,-15.267 -1.02,0 -2.017,0.102 -2.981,0.297 -1.896,-3.382 -5.509,-5.667 -9.656,-5.667 -1.736,0 -3.378,0.401 -4.84,1.114 -1.922,-4.521 -6.4,-7.691 -11.619,-7.691 -5.435,0 -10.067,3.439 -11.845,8.262 -0.777,-0.165 -1.582,-0.251 -2.408,-0.251 -6.471,0 -11.717,5.3 -11.717,11.839 0,4.382 2.357,8.208 5.859,10.255 -0.721,1.659 -1.122,3.49 -1.122,5.415 0,7.52 6.105,13.616 13.635,13.616 C -6.42,5.359 -2.491,3.257 0,0" style="fill:#00a1e0;fill-opacity:1;fill-rule:nonzero;stroke:none">
</svg>
