<svg id="reaction-logo-final1" xmlns="http://www.w3.org/2000/svg" width="756" height="756" viewBox="0 0 756 756">
  <defs>
    <style>
      .cls-1 {
        fill: #fff;
        fill-rule: evenodd;
      }

      .cls-2 {
        fill: none;
        stroke: #fff;
        stroke-width: 10px;
      }
    </style>
  </defs>
  <path id="R" class="cls-1" d="M312.1,215.059q20.005,0,30.008,5.477,17.8,9.692,17.807,37.918,0,26.123-18.406,34.968-10.407,5.056-31.209,5.056H240.474V215.059H312.1Zm13.485-53.928H177.067V471.636h63.407V349.878h63.368q27.094,0,36.963,9.9t10.263,39.6l0.421,28.86a152.566,152.566,0,0,0,2.739,26.753q1.263,6.319,4.213,16.642h71.622v-7.8q-9.415-5.687-11.981-17.694-1.713-7.584-1.711-28.86V396.432q0-32.649-8.953-48.556t-30.44-24.541q25.7-8.847,36.865-30.229t11.164-43.5q0-18.327-5.753-32.651a96.652,96.652,0,0,0-15.611-26.121,76.706,76.706,0,0,0-29.068-21.7q-17.151-7.371-48.99-8h0Z" transform="translate(-53)"/>
  <path id="e" class="cls-1" d="M580.206,285.417q21.249,0,35.607,12.38t15.993,36.281H528.375q3.268-22.423,15.993-35.541t35.838-13.12h0Zm-0.023-49.5q-50.478,0-82.109,31.838t-31.631,91.5q0,63.675,35.037,91.927t80.879,28.251q55.533,0,86.384-33.494,19.833-21.063,22.257-41.5H629.706q-5.361,10.111-12.356,15.8-12.822,10.536-33.336,10.533-19.348,0-33.1-8.637-22.613-13.9-24.011-48.451H694.134q0.444-29.746-1.978-45.57-4.188-27.006-18.294-47.47-15.651-23.205-39.679-33.968t-54-10.759h0Z" transform="translate(-53)"/>
  <path id="REACTION" class="cls-1" d="M210.618,532.265q5,0,7.5,1.369,4.452,2.423,4.452,9.479,0,6.531-4.6,8.743-2.6,1.263-7.8,1.263H192.712V532.265h17.906Zm3.371-13.482H176.86v77.626h15.852v-30.44h15.842q6.774,0,9.24,2.476t2.566,9.9l0.1,7.215a38.224,38.224,0,0,0,.685,6.688q0.316,1.581,1.053,4.161h17.906V594.46a6.477,6.477,0,0,1-3-4.423,39.207,39.207,0,0,1-.428-7.215v-5.214q0-8.163-2.238-12.139a14.5,14.5,0,0,0-7.61-6.135,15.6,15.6,0,0,0,9.216-7.557,23.265,23.265,0,0,0,2.791-10.875,21.778,21.778,0,0,0-1.438-8.163,24.192,24.192,0,0,0-3.9-6.531,19.173,19.173,0,0,0-7.267-5.424q-4.289-1.844-12.248-2h0Zm92.4,0H249.462v77.626h58.825V582.453H265.314V562.494h37.707V549.012H265.314V532.528h41.077V518.783Zm40.346,17.747,9.806,30.545h-19.88Zm-36.716,59.879h16.967l5.262-15.957h28.587l5.122,15.957h17.59l-27.464-77.626H337.731Zm74.639-38.181q0,18.8,9.482,29.6,9.482,10.743,26.05,10.743,13.391,0,21.96-7.952t10.655-20.644H436.692a24.52,24.52,0,0,1-4.018,9q-4.38,5.583-12.725,5.583a16.55,16.55,0,0,1-13.42-6.5q-5.28-6.5-5.28-19.565t5-20.2a15.83,15.83,0,0,1,13.673-7.136q8.511,0,12.845,5.055a22.1,22.1,0,0,1,3.973,8.427h16.221a28.023,28.023,0,0,0-5.314-14.483q-8.963-12.849-28.343-12.85-14.486,0-23.863,9.585Q384.66,537.9,384.66,558.228h0Zm69.39-39.445v13.745h23.33v63.881h16.325V532.528H516.93V518.783H454.05Zm81.765,0H519.7v77.626h16.115V518.783Zm44.111,66.04a18.749,18.749,0,0,1-15.378-7.11q-5.74-7.108-5.74-20.222t5.74-20.223a18.749,18.749,0,0,1,15.378-7.11q9.637,0,15.3,7.136t5.661,20.2q0,13.113-5.661,20.222t-15.3,7.11h0Zm37.18-27.332q0-21.33-11.743-32.02-8.8-9.057-25.437-9.058t-25.436,9.058q-11.8,10.692-11.8,32.02,0,20.907,11.8,32.019,8.793,9.058,25.436,9.058t25.437-9.058q11.742-11.111,11.743-32.019h0Zm6.72,38.918h15.115V541.33l31.6,55.079h16.217V518.783H671.645v54.126l-30.814-54.126h-17v77.626Z" transform="translate(-53)"/>
  <circle class="cls-2" cx="378" cy="378" r="373"/>
</svg>
